<svg xmlns:inkscape="http://www.inkscape.org/namespaces/inkscape" xmlns:sodipodi="http://sodipodi.sourceforge.net/DTD/sodipodi-0.dtd" xmlns="http://www.w3.org/2000/svg" xmlns:svg="http://www.w3.org/2000/svg" width="189.0975mm" height="68.345009mm" viewBox="0 0 189.0975 68.345009" version="1.1" id="svg1" xml:space="preserve" inkscape:version="1.3.2 (091e20e, 2023-11-25, custom)" sodipodi:docname="logo2svg.svg"><sodipodi:namedview id="namedview1" pagecolor="#505050" bordercolor="#cfcfcf" borderopacity="1" inkscape:showpageshadow="0" inkscape:pageopacity="0" inkscape:pagecheckerboard="0" inkscape:deskcolor="#505050" inkscape:document-units="mm" inkscape:zoom="0.52724989" inkscape:cx="466.57194" inkscape:cy="615.4577" inkscape:window-width="1920" inkscape:window-height="1051" inkscape:window-x="-9" inkscape:window-y="-9" inkscape:window-maximized="1" inkscape:current-layer="layer1" fill="#ffffff"/><defs id="defs1" fill="#ffffff"/><g inkscape:label="Capa 1" inkscape:groupmode="layer" id="layer1" transform="translate(-16.261423,-34.933157)"><path style="fill:#ffffff" d="m 81.169886,103.19661 c -9.815949,-0.78078 -16.386646,-2.55334 -24.818896,-6.695341 -7.773337,-3.81834 -14.836907,-8.8685 -23.870951,-17.06673 -3.20751,-2.91076 -15.414197,-15.02124 -15.921786,-15.79629 -0.609809,-0.93115 -0.22648,-2.21074 0.66227,-2.21074 0.415534,0 0.908946,0.28897 5.399919,3.16259 4.230544,2.70697 9.861966,6.06864 12.875782,7.68618 3.049384,1.63662 3.899942,2.063 6.377078,3.19678 8.169468,3.73914 15.174525,5.80947 23.440067,6.92767 3.502005,0.47377 12.95126,0.42894 16.804461,-0.0797 8.980075,-1.18546 17.012538,-3.05367 26.6286,-6.19335 14.96233,-4.88525 30.60976,-12.15236 38.77835,-18.00977 1.58564,-1.13701 4.47158,-3.83189 5.06828,-4.73273 0.43137,-0.65125 0.53439,-0.98548 0.53439,-1.73373 0,-1.13241 -0.28682,-1.72002 -1.23625,-2.53269 -0.83445,-0.71426 -3.68215,-2.195 -5.83025,-3.0316 -1.68491,-0.65621 -2.06824,-0.93073 -2.06824,-1.4812 0,-0.86731 0.62208,-1.22575 3.27472,-1.88683 20.35414,-5.07258 30.8217,-7.09316 39.76957,-7.67681 4.98077,-0.32489 9.80472,0.0913 12.02264,1.03718 3.64798,1.55581 5.22989,3.19477 6.04739,6.26545 0.31946,1.19993 0.3419,5.98424 0.0281,5.98255 -0.1185,-6.4e-4 -0.74697,-0.34384 -1.39662,-0.76266 -1.4366,-0.92619 -2.52301,-1.21535 -3.96071,-1.05421 -1.86436,0.20897 -3.30112,1.10364 -4.1796,2.60264 -0.23765,0.40553 -0.53472,0.8225 -0.66015,0.92659 -0.12543,0.1041 -0.96797,0.25927 -1.87232,0.34483 -0.90434,0.0856 -1.82586,0.2499 -2.04782,0.36521 -0.93627,0.48636 -1.86947,1.42421 -2.30699,2.31847 -0.4199,0.85824 -0.45623,1.08925 -0.39953,2.54029 l 0.0624,1.59621 -1.55118,0.51888 c -1.90122,0.63597 -2.60377,1.05935 -3.60411,2.17198 -1.52817,1.69968 -2.26717,4.17889 -1.84906,6.2032 0.2705,1.30963 0.89508,2.74539 1.52619,3.50837 0.66541,0.80443 2.06866,1.89232 3.12571,2.42325 0.82991,0.41684 0.88718,0.48705 0.88324,1.08299 -0.002,0.35049 -0.0809,0.96974 -0.17465,1.3761 -0.20661,0.89566 0.15743,2.69514 0.73699,3.64306 0.5701,0.93245 1.96607,2.35092 2.90931,2.95619 0.46277,0.29696 0.8414,0.63466 0.8414,0.75044 0,0.11579 -0.19648,0.3951 -0.43662,0.6207 -0.24014,0.2256 -1.14091,1.69336 -2.00171,3.26167 -2.45362,4.47035 -2.70353,4.80296 -3.43436,4.57101 -0.50226,-0.15941 -0.86042,-0.99962 -1.29008,-3.02636 -0.43152,-2.03553 -1.13406,-3.58666 -1.99945,-4.41458 -1.46113,-1.39785 -3.95893,-1.92769 -7.55507,-1.60261 -5.17757,0.46804 -10.05182,1.80503 -24.21666,6.64255 -13.63272,4.6558 -23.54842,7.8767 -27.57655,8.95764 -1.94354,0.52155 -4.13561,1.12028 -5.68766,1.55352 -8.70492,2.429841 -18.794992,4.204401 -26.884194,4.728181 -2.526012,0.16355 -7.294988,0.19844 -8.96532,0.0656 z" id="path1"/></g></svg>