<?xml version="1.0" encoding="UTF-8" standalone="no"?>
<!-- Created with Inkscape (http://www.inkscape.org/) -->

<svg
   width="166.09673mm"
   height="59.944111mm"
   viewBox="0 0 166.09673 59.944111"
   version="1.1"
   id="svg1"
   xml:space="preserve"
   inkscape:version="1.3.2 (091e20e, 2023-11-25, custom)"
   sodipodi:docname="logo1.svg"
   xmlns:inkscape="http://www.inkscape.org/namespaces/inkscape"
   xmlns:sodipodi="http://sodipodi.sourceforge.net/DTD/sodipodi-0.dtd"
   xmlns="http://www.w3.org/2000/svg"
   xmlns:svg="http://www.w3.org/2000/svg"><sodipodi:namedview
     id="namedview1"
     pagecolor="#505050"
     bordercolor="#eeeeee"
     borderopacity="1"
     inkscape:showpageshadow="0"
     inkscape:pageopacity="0"
     inkscape:pagecheckerboard="false"
     inkscape:deskcolor="#505050"
     inkscape:document-units="mm"
     inkscape:zoom="0.52724989"
     inkscape:cx="246.56241"
     inkscape:cy="266.47706"
     inkscape:window-width="1920"
     inkscape:window-height="1051"
     inkscape:window-x="-9"
     inkscape:window-y="-9"
     inkscape:window-maximized="1"
     inkscape:current-layer="layer1" /><defs
     id="defs1" /><g
     inkscape:label="Capa 1"
     inkscape:groupmode="layer"
     id="layer1"
     transform="translate(-22.200109,-116.38198)"><path
       style="fill:#000000"
       d="m 81.572448,176.26116 c -0.249631,-0.0562 -1.018485,-0.11027 -1.708564,-0.12011 -0.690079,-0.01 -2.221905,-0.12213 -3.404057,-0.24953 -6.919938,-0.74573 -12.615084,-2.46216 -19.336135,-5.82763 -6.00474,-3.0068 -10.698811,-6.26664 -18.357985,-12.74887 -3.581196,-3.0309 -15.741749,-15.03248 -16.301518,-16.08842 -0.324674,-0.61246 -0.332958,-0.68812 -0.117591,-1.07396 0.173086,-0.31009 0.364428,-0.42529 0.756458,-0.4554 0.574188,-0.0441 0.931864,0.14501 3.626241,1.91744 10.09727,6.64223 18.384413,10.94484 26.013263,13.50586 11.539553,3.87385 23.259816,4.24556 36.923981,1.17107 7.479455,-1.68291 12.425349,-3.1424 19.974629,-5.89433 10.32356,-3.76324 21.46735,-9.22013 27.79348,-13.60991 2.56764,-1.78172 3.00504,-2.16916 4.12126,-3.65049 0.99094,-1.31509 1.23008,-2.11623 0.91587,-3.06831 -0.38338,-1.16163 -2.6323,-2.64165 -6.09275,-4.00963 -1.61651,-0.63903 -1.77892,-0.75834 -1.77892,-1.30672 0,-0.92576 0.19604,-1.0086 5.2952,-2.23758 1.53939,-0.37102 3.27546,-0.78471 3.85793,-0.91931 0.58247,-0.13461 2.93127,-0.67983 5.21956,-1.21161 12.22888,-2.84188 18.34029,-3.81758 24.90281,-3.9758 4.78088,-0.11527 6.92471,0.13612 9.44035,1.10698 2.199,0.84866 3.7071,2.38387 4.46226,4.54247 0.36574,1.04547 0.4252,1.47779 0.4913,3.57225 0.0554,1.75422 0.0288,2.38284 -0.10085,2.38284 -0.0968,0 -0.6223,-0.30555 -1.16772,-0.679 -1.23625,-0.84649 -1.93548,-1.04135 -3.38653,-0.94374 -1.83624,0.12351 -3.30538,0.99835 -4.00929,2.38746 -0.40115,0.79163 -0.36609,0.77601 -2.18954,0.97543 -1.34533,0.14714 -1.95108,0.39323 -2.76154,1.12191 -1.09265,0.98238 -1.31597,1.56759 -1.32001,3.45911 -0.002,1.1126 -0.0572,1.57074 -0.19243,1.60906 -0.10402,0.0295 -0.63165,0.17531 -1.17251,0.32411 -1.69863,0.4673 -2.65434,1.10202 -3.56233,2.36588 -1.65323,2.30117 -1.74249,4.84953 -0.26495,7.56426 0.48311,0.88762 2.01811,2.21007 3.1071,2.67687 l 0.70296,0.30132 -0.0292,1.86239 c -0.026,1.65756 0.009,1.94558 0.31765,2.61885 0.3635,0.79273 2.15279,2.73244 3.01937,3.2732 0.56434,0.35216 0.61222,0.58005 0.20021,0.95291 -0.16032,0.14509 -1.0494,1.65165 -1.97575,3.34793 -1.78364,3.2661 -2.20022,3.7921 -2.79033,3.52322 -0.49333,-0.22477 -0.78242,-0.93137 -1.14077,-2.78828 -0.52976,-2.74518 -1.58533,-4.12585 -3.65388,-4.77923 -0.96131,-0.30364 -1.41068,-0.35063 -3.2345,-0.3382 -4.36671,0.0297 -9.77491,1.39048 -21.55903,5.42436 -17.77986,6.08632 -26.67839,8.86841 -33.66235,10.52442 -8.34507,1.97875 -14.804037,2.99818 -21.104371,3.33094 -1.456615,0.0769 -3.022837,0.16144 -3.480494,0.1878 -0.457656,0.0264 -1.036346,0.002 -1.285977,-0.0543 z m 9.833945,-2.08956 c 8.638007,-1.01768 16.432027,-2.77149 27.988927,-6.29805 4.09704,-1.2502 9.17218,-2.92594 21.63468,-7.14346 8.37532,-2.83435 9.97547,-3.33091 13.84316,-4.2958 5.85024,-1.45949 9.90136,-1.54065 12.66519,-0.25373 1.46741,0.68327 2.87761,2.61334 3.38265,4.62965 0.13732,0.54824 0.2688,0.78604 0.41825,0.75646 0.21129,-0.0418 2.26709,-3.50101 2.2851,-3.84503 0.005,-0.094 -0.30354,-0.42695 -0.68547,-0.73992 -1.0845,-0.88867 -1.39639,-1.27631 -1.99489,-2.47947 -0.51389,-1.03307 -0.56214,-1.24389 -0.61568,-2.69015 l -0.0581,-1.56924 -0.94115,-0.6716 c -1.75881,-1.25505 -2.7271,-2.54888 -3.42442,-4.57568 -0.65801,-1.91255 -0.50933,-3.77374 0.47072,-5.89237 0.72973,-1.5775 2.27751,-3.20092 3.59493,-3.77061 1.7218,-0.74456 1.59092,-0.58755 1.78266,-2.1386 0.18461,-1.49332 0.4286,-2.00657 1.53728,-3.23375 0.8687,-0.96155 2.85063,-1.79554 4.2706,-1.79707 0.46972,-5.1e-4 0.61406,-0.10223 1.17415,-0.82744 0.84141,-1.08948 1.85109,-1.80294 3.11735,-2.20275 0.85954,-0.2714 1.26543,-0.31243 2.42067,-0.24472 0.76338,0.0447 1.6508,0.12754 1.97205,0.18401 l 0.58408,0.10266 -0.0992,-0.81279 c -0.0546,-0.44703 -0.24347,-1.28052 -0.41979,-1.85219 -0.64749,-2.09929 -2.55946,-3.52886 -5.64179,-4.21836 -1.3718,-0.30686 -1.90099,-0.33771 -5.67343,-0.3308 -4.43647,0.008 -6.57362,0.20139 -11.64945,1.05349 -4.74642,0.79681 -6.31586,1.10038 -9.75829,1.88754 -1.49779,0.34248 -3.91467,0.88975 -5.37085,1.21614 -6.61933,1.48369 -10.36347,2.45527 -10.36347,2.68927 0,0.10937 0.51061,0.42444 1.13469,0.70018 3.39685,1.50082 5.14735,3.28447 5.14466,5.24207 -0.003,1.9034 -1.46455,4.01103 -4.23691,6.10825 -5.76646,4.36219 -14.69361,9.01039 -26.03398,13.5554 -6.3352,2.53904 -15.72199,5.55013 -20.715087,6.64498 -0.29124,0.0639 -1.72094,0.3931 -3.177119,0.73164 -1.456181,0.33855 -3.311392,0.72143 -4.122692,0.85085 -0.811301,0.12942 -2.104843,0.33598 -2.874538,0.45903 -11.78839,1.88449 -23.623881,0.47754 -35.213085,-4.18596 -5.204383,-2.09425 -16.239526,-8.08323 -20.095698,-10.90631 -0.44332,-0.32455 -0.845896,-0.55023 -0.894613,-0.50152 -0.109825,0.10983 7.241625,7.43312 9.734888,9.6976 3.692823,3.35397 7.342737,6.39971 10.533181,8.78962 9.748055,7.30209 19.68538,11.42892 29.997137,12.45737 0.748893,0.0747 3.676383,0.1147 6.505533,0.0889 4.052611,-0.0369 5.721656,-0.11497 7.867156,-0.36774 z"
       id="path1" /></g></svg>
